<svg width="236" height="236" viewBox="0 0 236 236" fill="none" xmlns="http://www.w3.org/2000/svg">
<path d="M0 109.531C1.21643 102.922 2.10683 96.2378 3.69948 89.7291C15.4876 41.7482 55.4668 6.62153 104.538 0.877859C105.591 0.752451 106.607 0.300978 107.648 0C114.57 0 121.493 0 128.428 0C134.41 1.16629 140.467 2.06923 146.373 3.54904C201.201 17.2937 237.531 65.8139 235.95 123.037C234.471 176.561 194.015 223.389 140.178 233.86C72.9484 246.94 7.64977 198.52 0.902959 130.625C0.765013 129.245 0.300973 127.891 0 126.524C0 120.855 0 115.187 0 109.531ZM117.994 231.941C180.672 232.067 231.937 181.026 232.125 118.31C232.314 55.4552 181.086 4.01304 118.207 3.9378C55.4919 3.86255 4.45187 54.7153 4.12581 117.62C3.79976 180.449 54.9527 231.816 117.994 231.941Z" fill="white"/>
<path d="M110.432 207.023C106.269 205.944 103.184 205.154 100.086 204.364C99.9734 204.653 99.873 204.941 99.7602 205.242C102.344 206.96 104.939 208.678 107.523 210.409C107.322 210.86 107.109 211.299 106.908 211.751C104.475 211.487 101.992 211.45 99.6222 210.936C78.1779 206.27 60.1446 195.824 45.8108 179.12C38.2865 170.366 37.9604 166.968 43.8545 156.91C44.6445 155.568 45.6101 154.339 46.7889 152.621C52.7582 158.039 58.8529 162.942 67.393 159.719C71.6443 158.114 74.1023 154.816 75.4315 150.163C70.6411 150.163 66.1139 150.426 61.637 150.088C56.7085 149.724 52.6202 147.592 50.062 143.027C49.4976 142.012 48.4568 141.159 47.441 140.532C40.6441 136.343 37.998 130.612 40.343 122.925C41.7852 118.184 44.3435 113.782 46.5255 108.942C38.8758 97.1031 42.5 84.5875 59.0786 83.7347C58.4265 78.9441 58.251 74.1034 57.0095 69.5511C55.8432 65.2872 52.2691 64.3843 48.3565 66.5413C39.2395 71.5952 32.7561 87.4468 35.9414 97.379C38.462 105.267 37.6343 112.904 34.775 120.441C33.383 124.103 31.4142 127.577 30.2981 131.302C29.182 135.039 28.7933 138.989 27.79 144.394C26.7993 141.548 26.0594 139.993 25.7208 138.35C21.2313 116.504 23.639 95.4101 33.684 75.4954C36.1545 70.592 39.8791 65.8766 44.1178 62.4028C51.4665 56.3833 60.1571 59.5686 63.0916 68.5729C63.5305 69.9148 63.982 71.3068 64.0573 72.6863C64.4962 80.4615 64.0196 87.986 69.1863 95.1969C72.9359 100.426 70.2397 107.311 67.3052 113.168C66.6406 114.485 66.4901 116.842 67.2551 117.958C73.8389 127.64 70.9295 137.234 59.9439 141.284C59.2542 141.535 58.552 141.773 57.8622 142.012C57.8246 142.425 57.7995 142.852 57.7619 143.266C60.7215 143.705 63.6936 144.495 66.6532 144.507C86.6428 144.595 103.635 129.91 106.193 110.384C107.335 101.63 104.024 94.0181 99.5344 86.8322C97.2019 83.0951 94.4555 79.6213 92.1606 75.8716C87.4203 68.134 84.3604 59.7317 87.0691 50.7525C88.6743 45.4352 92.123 40.6697 94.6687 35.7914C93.3896 36.5689 91.2577 37.4593 89.6275 38.914C80.8115 46.7394 78.9805 56.7219 82.7426 67.2812C85.1755 74.141 89.339 80.4239 93.051 86.7695C96.6501 92.9271 100.124 99.0846 100.249 106.446C100.299 109.092 100.249 111.851 99.6097 114.397C96.4745 127.151 89.2136 130.687 74.9425 126.398C75.2685 125.546 75.4942 124.668 75.9206 123.903C82.4166 112.34 81.8272 100.853 74.7418 89.9674C58.8529 65.538 68.5091 27.0003 110.884 23.7522C124.478 22.7113 141.232 25.1317 150.712 29.7718C150.01 31.9539 149.308 34.1611 148.455 36.8448C152.895 38.8137 157.259 40.7575 161.999 42.8643C159.779 47.3916 157.723 51.5802 155.553 55.9945C153.597 55.1417 151.954 53.9504 150.223 53.8124C148.28 53.6619 145.057 53.9002 144.542 54.9913C143.765 56.6341 144.041 60.1706 145.27 61.1362C150.349 65.1367 147 68.2468 144.731 71.4071C140.693 77.0254 138.774 77.7904 133.946 75.671C122.559 70.6672 120.715 65.6384 122.346 56.3206C118.709 54.2388 112.827 54.9035 112.238 48.8212C111.761 43.9303 115.311 42.0868 119.023 40.2308C115.336 39.1648 112.501 40.6948 110.294 43.3284C107.636 46.5012 107.322 50.2258 109.09 53.9378C109.742 55.3173 110.733 57.0354 111.987 57.537C117.192 59.5812 118.245 63.4688 118.897 68.598C119.825 75.834 130.572 84.8132 137.369 83.5842C141.934 82.7565 145.972 79.0444 151.151 76.0974C153.145 78.2042 155.854 81.4272 158.964 84.1861C160.356 85.4277 162.714 86.594 164.382 86.3055C168.507 85.5907 172.621 84.3492 176.471 82.6813C178.465 81.8159 180.797 79.8596 181.362 77.9158C182.478 74.0281 182.779 69.9649 187.08 67.7452C175.643 70.2534 169.649 66.4911 169.385 56.4084C171.392 56.5839 173.411 56.7595 176.383 57.0103C169.711 52.4706 169.649 52.0442 174.151 48.0688C175.856 50.0878 177.587 52.132 179.305 54.1636C179.531 54.0131 179.769 53.8626 179.995 53.7246C179.205 51.2792 178.415 48.8212 177.624 46.3758C178.063 46.1876 178.502 45.9995 178.941 45.8114C194.266 59.531 205.477 75.8214 210.004 96.8523C206.493 97.1031 203.27 97.1909 200.085 97.5671C189.149 98.8588 179.919 104.339 170.828 109.982C169.787 110.635 169.272 112.453 168.934 113.833C168.457 115.789 168.37 117.846 166.877 120.567C163.341 115.651 159.817 110.747 156.092 105.581C154.914 106.91 153.584 108.402 151.916 110.283C160.532 120.868 170.138 129.935 182.929 135.001C186.917 136.581 190.905 136.356 194.379 133.145C195.056 132.518 196.561 132.619 197.664 132.656C199.42 132.719 201.163 133.007 203.997 133.321C192.535 126.047 190.754 118.949 197.727 111.851C199.031 113.619 200.335 115.388 201.765 117.319C201.928 114.409 201.627 111.926 202.392 109.845C202.693 109.029 205.377 109.08 207.571 108.603C207.145 110.81 206.769 112.265 206.618 113.732C206.48 115.099 206.593 116.504 207.258 118.034C208.462 115.525 209.666 113.017 210.857 110.497C211.283 110.647 211.71 110.798 212.149 110.961C213.566 131.339 209.49 150.452 198.078 168.498C197.025 166.729 196.222 165.325 195.357 163.958C191.043 157.073 184.622 154.452 176.696 153.9C169.699 153.411 162.538 152.684 155.867 150.69C145.671 147.655 138.849 140.82 137.482 129.634C137.394 128.894 137.081 128.179 136.855 127.414C132.629 127.891 131.375 129.508 132.679 133.697C134.836 140.645 138.899 145.912 145.069 149.762C135.889 156.208 125.443 155.38 118.132 147.881C116.264 145.962 114.32 144.131 112.439 142.225C110.181 139.955 107.736 139.403 104.325 141.635C116.702 148.846 115.599 159.255 110.608 169.89C104.475 182.97 92.6623 181.427 79.5072 179.722C82.4543 184.387 84.6865 187.948 87.0065 191.635C86.2039 194.031 85.2508 196.89 84.2977 199.749C84.7241 200.05 85.163 200.351 85.5894 200.64C87.3952 195.485 90.6432 192.037 95.8601 190.996C100.939 189.98 105.592 192.074 108.727 196.94C107.134 197.116 105.566 197.053 104.187 197.53C102.983 197.943 101.992 198.984 101.215 199.523C104.237 200.326 107.234 200.715 109.768 202.032C110.595 202.458 110.194 205.255 110.369 206.998L110.432 207.023ZM48.4192 133.785C51.1655 128.104 53.7991 122.661 56.6082 116.855C55.0908 115.801 53.4605 114.685 51.8804 113.582C44.9329 121.909 43.8168 128.969 48.4192 133.772V133.785ZM61.3109 120.554C58.8404 125.771 56.5831 130.549 54.0624 135.892C58.8404 136.443 61.8125 135.678 63.6183 132.28C65.6373 128.455 65.8255 124.793 61.3109 120.567V120.554ZM61.9505 94.294C59.8311 99.0846 57.7368 103.838 55.5547 108.766C57.348 109.97 58.9658 111.061 60.571 112.152C65.4869 105.255 65.8882 99.1347 61.9379 94.294H61.9505ZM56.7712 89.5034C48.5572 90.2308 46.4503 95.7613 51.0778 103.474C53.0341 98.6833 54.7522 94.457 56.7712 89.5034ZM137.269 43.4161C128.328 40.0678 126.986 40.8202 127.851 48.3697C130.848 46.7896 133.682 45.2973 137.269 43.4161Z" fill="white"/>
<path d="M124.515 212.415C121.38 200.012 115.963 189.742 101.303 186.606C102.306 184.65 102.695 182.393 103.974 181.653C113.053 176.323 119.022 168.962 120.302 158.628H138.435C139.978 162.39 138.648 166.19 136.717 170.115C135.363 172.849 134.096 175.909 133.933 178.881C133.57 185.428 138.235 189.39 144.793 188.651C147.753 188.312 150.7 187.748 153.609 187.095C156.506 186.443 159.353 185.54 162.45 184.688C163.642 185.992 164.971 187.434 165.824 188.35C166.225 184.336 165.849 179.859 167.253 176.022C168.946 171.394 173.323 169.639 178.339 169.852C177.813 172.36 177.361 174.567 176.897 176.787C181.462 170.629 183.431 170.241 187.306 174.931C184.735 176.963 182.139 179.007 179.543 181.051C179.719 181.289 179.894 181.54 180.07 181.778C182.929 180.762 185.788 179.747 188.648 178.731C188.861 179.245 189.074 179.759 189.287 180.261C172.169 199.523 150.8 210.371 124.54 212.44L124.515 212.415Z" fill="white"/>
<path d="M149.521 57.6875C153.045 58.2769 155.139 61.2491 157.008 64.5348C162.024 73.3258 163.065 73.6017 171.893 68.3095C173.323 72.1721 171.881 75.069 169.009 77.3138C165.974 79.6965 162.25 80.1104 159.541 77.4392C157.121 75.0439 155.566 71.6705 154.023 68.5353C152.292 65.0239 151.001 61.2867 149.534 57.6875H149.521Z" fill="white"/>
<path d="M48.419 133.797C43.8166 128.994 44.9327 121.934 51.8802 113.607C53.4728 114.71 55.0906 115.826 56.608 116.88C53.7989 122.674 51.1653 128.129 48.419 133.81V133.797Z" fill="#115740"/>
<path d="M61.2983 120.567C65.8129 124.793 65.6248 128.455 63.6058 132.28C61.7999 135.678 58.8278 136.456 54.0498 135.892C56.5705 130.562 58.8278 125.771 61.2983 120.554V120.567Z" fill="#115740"/>
<path d="M61.9379 94.3064C65.8756 99.1471 65.4868 105.267 60.5709 112.164C58.9657 111.086 57.3354 109.982 55.5547 108.778C57.7367 103.85 59.8311 99.097 61.9504 94.3064H61.9379Z" fill="#115740"/>
<path d="M56.7461 89.5159C54.727 94.4695 53.009 98.6957 51.0527 103.486C46.4127 95.7737 48.532 90.2432 56.7461 89.5159Z" fill="#115740"/>
<path d="M137.244 43.4286C133.657 45.3097 130.823 46.8021 127.826 48.3822C126.96 40.8327 128.29 40.0802 137.244 43.4286Z" fill="#115740"/>
</svg>
