<svg width="240" height="240" viewBox="0 0 240 240" fill="none" xmlns="http://www.w3.org/2000/svg">
<path d="M120 238C185.17 238 238 185.17 238 120C238 54.8304 185.17 2 120 2C54.8304 2 2 54.8304 2 120C2 185.17 54.8304 238 120 238Z" stroke="white" stroke-width="3" stroke-miterlimit="10"/>
<path d="M105.03 143.74L45.667 139.802C41.8128 139.55 40.3326 134.663 43.3908 132.303L152.118 48.6274C155.735 45.8485 160.567 50.0239 158.319 54.0038L108.968 141.631C108.172 143.041 106.65 143.865 105.044 143.754L105.03 143.74Z" fill="white"/>
<path d="M112.082 147.37L146.225 196.093C148.446 199.249 153.389 197.992 153.822 194.151L169.029 57.8021C169.532 53.2636 163.457 51.3086 161.209 55.2885L111.859 142.916C111.063 144.326 111.146 146.058 112.082 147.37Z" fill="white"/>
</svg>
