<svg width="240" height="240" viewBox="0 0 240 240" fill="none" xmlns="http://www.w3.org/2000/svg">
<path d="M62.475 110.496C73.7096 110.496 82.8172 101.388 82.8172 90.1537C82.8172 78.919 73.7096 69.8115 62.475 69.8115C51.2403 69.8115 42.1328 78.919 42.1328 90.1537C42.1328 101.388 51.2403 110.496 62.475 110.496Z" fill="white"/>
<path d="M113.792 205.729C125.792 205.729 135.52 196.002 135.52 184.002C135.52 172.002 125.792 162.275 113.792 162.275C101.792 162.275 92.0647 172.002 92.0647 184.002C92.0647 196.002 101.792 205.729 113.792 205.729Z" fill="white"/>
<path d="M170.65 113.279C185.972 113.279 198.393 100.858 198.393 85.5363C198.393 70.2143 185.972 57.7935 170.65 57.7935C155.328 57.7935 142.907 70.2143 142.907 85.5363C142.907 100.858 155.328 113.279 170.65 113.279Z" fill="white"/>
<path d="M60.9112 101.532L104.366 176.797L113.974 171.25L70.5194 95.9843L60.9112 101.532Z" fill="white"/>
<path d="M156.245 101.077L112.79 176.343L122.398 181.89L165.853 106.624L156.245 101.077Z" fill="white"/>
<path d="M120 238C185.17 238 238 185.17 238 120C238 54.8304 185.17 2 120 2C54.8303 2 2 54.8304 2 120C2 185.17 54.8303 238 120 238Z" stroke="white" stroke-width="3" stroke-miterlimit="10"/>
</svg>
